<svg xmlns="http://www.w3.org/2000/svg" viewBox="0 0 780 140" role="img" aria-label="Shantou Jingyuan Eco-Tech full logo">
  <defs>
    <linearGradient id="g" x1="0%" y1="0%" x2="100%" y2="100%">
      <stop stop-color="#21b6a8" offset="0%"/>
      <stop stop-color="#30c2b4" offset="100%"/>
    </linearGradient>
  </defs>
  <g transform="translate(10 10)">
    <g transform="scale(1.05)">
      <circle cx="60" cy="60" r="56" fill="url(#g)"/>
      <path fill="#ffffff" d="M60 16c-11.5 7.2-18 16.6-18 28.5 0 8.7 3.5 17.2 8.9 24.7 2.8 3.9 6.1 7.5 9.1 10.1 3-2.6 6.3-6.2 9.1-10.1 5.4-7.5 8.9-16 8.9-24.7C77 32.6 71.3 23.1 60 16z"/>
      <path fill="#21b6a8" d="M60 30c-5.3 4.4-8.4 9.7-8.4 15.9 0 5 2 9.9 5 14.4 1.4 2.2 3 4.2 4.4 5.7 1.4-1.5 3-3.5 4.4-5.7 3-4.5 5-9.4 5-14.4C70.4 39.6 67 34.3 60 30z"/>
      <path fill="#ffffff" d="M34 40c-4.2 3.6-7.3 8.5-7.3 14.6 0 6.3 3 13.1 7.5 18.4 4.2 5 9.6 8.7 15 10.2 1.6-1.3 2.6-3.2 2.6-5.5 0-3.4-2-6.5-5.1-8.9-3.3-2.6-7.3-4.2-10.9-6.3-3.1-1.8-5.6-4.3-6.6-7.5C27.6 50.8 29.9 44.4 34 40z"/>
      <path fill="#ffffff" d="M86 40c4.2 3.6 7.3 8.5 7.3 14.6 0 6.3-3 13.1-7.5 18.4-4.2 5-9.6 8.7-15 10.2-1.6-1.3-2.6-3.2-2.6-5.5 0-3.4 2-6.5 5.1-8.9 3.3-2.6 7.3-4.2 10.9-6.3 3.1-1.8 5.6-4.3 6.6-7.5C92.4 50.8 90.1 44.4 86 40z"/>
    </g>
  </g>
  <g fill="#0e2b2a" font-family="Manrope, 'Noto Sans SC', 'Noto Sans TC', 'Source Han Sans SC', system-ui, sans-serif">
    <text x="140" y="68" font-size="34" font-weight="700">汕头市景源环保科技有限公司</text>
    <text x="140" y="106" font-size="26" font-weight="600" letter-spacing="0.5">SHANTOU JING YUAN ECO-TECH CO.,Ltd</text>
  </g>
</svg>
